<svg width="23" height="22" viewBox="0 0 23 22" fill="none" xmlns="http://www.w3.org/2000/svg">
<path d="M0.525879 10.974C0.525879 16.7728 5.4391 21.474 11.4999 21.474C17.5607 21.474 22.4739 16.7728 22.4739 10.974C22.4739 5.17521 17.5607 0.473999 11.4999 0.473999C5.4391 0.473999 0.525879 5.17521 0.525879 10.974ZM12.6868 5.64784C13.1864 5.15845 13.6565 4.6407 14.2078 4.20136C14.4516 4.00673 14.7038 3.82326 14.9873 3.68361C15.3917 3.48425 15.8352 3.66428 15.8592 4.01059L15.8588 6.16172C15.9068 6.71728 15.6726 7.15941 15.2756 7.53215C14.9593 7.82969 14.6214 8.10575 14.2942 8.39234C14.1599 8.50943 14.0335 8.63274 13.9341 8.77969C13.7347 9.07293 13.7958 9.32773 14.1159 9.49573C14.4417 9.66695 14.8028 9.70605 15.1654 9.72238C15.6955 9.74579 15.8341 9.89875 15.859 10.4077C15.9122 11.4952 15.7398 12.527 15.1667 13.4861C14.6613 14.3321 13.948 14.9869 13.1403 15.5575C11.5659 16.6686 9.83792 17.5196 8.06029 18.2841C7.65995 18.4562 7.44575 18.3303 7.43744 17.9078C7.42329 17.2057 7.42509 16.5036 7.43677 15.8015C7.44148 15.5158 7.61235 15.3267 7.89414 15.217C8.86973 14.8376 9.79795 14.3725 10.6588 13.7896C10.8881 13.6343 11.1166 13.4757 11.2785 13.2499C11.4572 13.0007 11.3982 12.8108 11.1074 12.6933C10.9226 12.6181 10.725 12.5857 10.527 12.5694C9.84869 12.5135 9.17061 12.5068 8.49499 12.6035C8.07219 12.6637 7.79916 12.8912 7.71923 13.2944C7.67859 13.4998 7.5991 13.4697 7.47651 13.3698C7.26455 13.1965 7.13342 13.034 7.13342 12.7094L7.13297 10.279C7.21156 9.89596 7.39119 9.81003 7.79445 9.75804L10.6173 9.75589C10.7733 9.7604 11.2359 9.68091 11.338 9.4128C11.4121 9.19797 11.232 9.05618 11.0899 8.92771C10.4435 8.34486 9.68052 7.92959 8.89084 7.55771C8.54259 7.39358 8.18221 7.252 7.82117 7.11451C7.5542 7.01225 7.42284 6.85327 7.42734 6.56496L7.43025 4.22457C7.43025 4.15561 7.43093 4.08557 7.44328 4.01725C7.51378 3.62282 7.69116 3.51476 8.0933 3.63678C8.72513 3.82884 9.25144 4.20201 9.77909 4.5668C10.344 4.95779 10.8892 5.37479 11.4566 5.76192C11.9752 6.11768 12.2364 6.08954 12.6868 5.64784Z" fill="black"/>
</svg>
